/* XPM */
static const char *fixed_bg_xpm[] = {
	/* columns rows colors chars-per-pixel */
	"8 8 2 1",
	". c #bbbbbb",
	"  c #d6d6d6",
	/* pixels */
	"        ",
	"        ",
	"        ",
	"        ",
	"        ",
	"        ",
	"      ..",
	"      ..",
	"        "
};
